# Blender 4.0.2
# www.blender.org
mtllib joystick_case.mtl
o Body
v -0.050000 -0.001000 0.035000
v -0.050000 0.001000 0.035000
v -0.050000 -0.001000 -0.035000
v -0.050000 0.001000 -0.035000
v 0.050000 -0.001000 0.035000
v 0.050000 0.001000 0.035000
v 0.050000 -0.001000 -0.035000
v 0.050000 0.001000 -0.035000
v -0.050000 -0.001000 -0.032000
v -0.050000 0.001000 -0.032000
v 0.050000 -0.001000 -0.032000
v 0.050000 0.001000 -0.032000
v -0.050000 -0.001000 0.032000
v 0.050000 0.001000 0.032000
v -0.050000 0.001000 0.032000
v 0.050000 -0.001000 0.032000
v -0.046667 -0.001000 -0.035000
v -0.046667 0.001000 -0.035000
v -0.046667 -0.001000 0.035000
v -0.046667 0.001000 0.035000
v 0.050000 0.030000 0.035000
v -0.046667 -0.001000 -0.032000
v 0.050000 0.030000 0.032000
v -0.046667 -0.001000 0.032000
v 0.046667 0.001000 -0.035000
v 0.046667 -0.001000 0.035000
v 0.050000 0.030000 -0.035000
v 0.046667 0.030000 -0.035000
v 0.046667 -0.001000 -0.035000
v 0.046667 0.001000 0.035000
v 0.046667 -0.001000 -0.032000
v 0.046667 -0.001000 0.032000
v -0.041111 -0.001000 -0.035000
v -0.041111 0.001000 0.035000
v -0.041111 -0.001000 -0.032000
v -0.041111 -0.001000 0.032000
v -0.041111 0.001000 -0.035000
v -0.041111 -0.001000 0.035000
v -0.041111 0.001000 -0.032000
v -0.050000 0.030000 -0.035000
v 0.041111 0.001000 -0.035000
v 0.041111 -0.001000 0.035000
v 0.041111 0.001000 -0.032000
v -0.050000 0.030000 -0.032000
v 0.041111 -0.001000 -0.035000
v 0.041111 0.001000 0.035000
v 0.041111 -0.001000 -0.032000
v 0.041111 -0.001000 0.032000
v -0.050000 0.001000 -0.027000
v 0.050000 -0.001000 -0.027000
v -0.050000 -0.001000 -0.027000
v 0.050000 0.001000 -0.027000
v -0.046667 -0.001000 -0.027000
v -0.046667 0.001000 -0.027000
v 0.046667 0.001000 -0.027000
v 0.046667 -0.001000 -0.027000
v -0.041111 -0.001000 -0.027000
v -0.041111 0.001000 -0.027000
v 0.041111 0.001000 -0.027000
v 0.041111 -0.001000 -0.027000
v -0.050000 -0.001000 0.027000
v 0.050000 0.001000 0.027000
v -0.046667 -0.001000 0.027000
v -0.046667 0.001000 0.027000
v 0.046667 0.001000 0.027000
v 0.046667 -0.001000 0.027000
v -0.041111 -0.001000 0.027000
v -0.041111 0.001000 0.027000
v 0.041111 0.001000 0.027000
v 0.041111 -0.001000 0.027000
v -0.050000 0.001000 0.027000
v 0.050000 -0.001000 0.027000
v 0.041111 0.001000 0.032000
v -0.041111 0.001000 0.032000
v -0.046667 0.030000 0.035000
v -0.050000 0.030000 0.035000
v -0.050000 0.030000 -0.027000
v 0.050000 0.030000 -0.032000
v 0.046667 0.030000 -0.032000
v 0.050000 0.030000 0.027000
v -0.050000 0.030000 0.032000
v 0.046667 0.030000 0.032000
v -0.046667 0.030000 -0.035000
v -0.041111 0.030000 0.035000
v -0.046667 0.030000 -0.032000
v -0.046667 0.030000 0.032000
v -0.046667 0.030000 0.027000
v 0.041111 0.030000 -0.035000
v 0.041111 0.030000 -0.032000
v 0.041111 0.030000 0.032000
v 0.046667 0.030000 0.035000
v 0.046667 0.030000 0.027000
v 0.041111 0.030000 0.035000
v -0.041111 0.030000 -0.035000
v -0.041111 0.030000 -0.032000
v -0.041111 0.030000 0.032000
v -0.041111 0.030000 0.027000
v 0.041111 0.030000 0.027000
v -0.050000 0.030000 0.027000
v 0.050000 0.030000 -0.027000
v -0.046667 0.030000 -0.027000
v 0.046667 0.030000 -0.027000
v -0.041111 0.030000 -0.027000
v 0.041111 0.030000 -0.027000
v 0.016333 -0.001000 -0.035000
v 0.016333 0.001000 0.035000
v 0.016333 -0.001000 -0.032000
v 0.016333 -0.001000 0.032000
v 0.016333 -0.001000 -0.027000
v 0.016333 -0.001000 0.027000
v 0.016333 0.030000 0.035000
v 0.016333 0.001000 -0.035000
v 0.016333 -0.001000 0.035000
v 0.016333 0.001000 -0.032000
v 0.016333 0.001000 -0.027000
v 0.016333 0.001000 0.027000
v 0.016333 0.001000 0.032000
v 0.016333 0.030000 -0.035000
v 0.016333 0.030000 -0.032000
v 0.016333 0.030000 0.032000
v 0.041111 0.026500 -0.027000
v 0.046667 0.026500 -0.027000
v 0.046667 0.026500 0.027000
v 0.041111 0.026500 0.027000
v 0.016333 0.026500 -0.032000
v 0.041111 0.026500 -0.032000
v 0.016333 0.026500 0.027000
v 0.016333 0.026500 0.032000
v 0.041111 0.026500 0.032000
v 0.041111 0.021500 -0.032000
v 0.041111 0.021500 -0.027000
v 0.041111 0.021500 0.027000
v 0.016333 0.021500 0.027000
v 0.016333 0.021500 -0.032000
v 0.016333 0.026500 -0.027000
v 0.016333 0.021500 -0.027000
v 0.046667 0.030000 0.003750
v 0.046667 0.026520 -0.003750
v 0.046667 0.026520 0.003750
v 0.046667 0.030000 -0.003750
v 0.050000 0.026520 0.003750
v 0.050000 0.030000 -0.003750
v 0.050000 0.026520 -0.003750
v 0.050000 0.030000 0.003750
vn -1.0000 -0.0000 -0.0000
vn -0.0000 -0.0000 -1.0000
vn 1.0000 -0.0000 -0.0000
vn -0.0000 -0.0000 1.0000
vn -0.0000 -1.0000 -0.0000
vn -0.0000 1.0000 -0.0000
vt 0.375000 0.243255
vt 0.625000 0.243255
vt 0.625000 0.250000
vt 0.375000 0.250000
vt 0.375000 0.487323
vt 0.625000 0.487323
vt 0.625000 0.500000
vt 0.375000 0.500000
vt 0.375000 0.737105
vt 0.625000 0.737105
vt 0.625000 0.750000
vt 0.375000 0.750000
vt 0.375000 0.992278
vt 0.625000 0.992278
vt 0.625000 1.000000
vt 0.375000 1.000000
vt 0.362323 0.737105
vt 0.362323 0.750000
vt 0.362323 0.500000
vt 0.375000 0.506745
vt 0.362323 0.506745
vt 0.625000 0.506745
vt 0.375000 0.218429
vt 0.625000 0.218429
vt 0.375000 0.000000
vt 0.625000 0.000000
vt 0.625000 0.012895
vt 0.375000 0.012895
vt 0.362323 0.723983
vt 0.375000 0.723983
vt 0.625000 0.723983
vt 0.125000 0.723983
vt 0.132722 0.723983
vt 0.132722 0.737105
vt 0.125000 0.737105
vt 0.125000 0.500000
vt 0.132722 0.500000
vt 0.132722 0.506745
vt 0.125000 0.506745
vt 0.132722 0.750000
vt 0.125000 0.750000
vt 0.375000 0.984211
vt 0.625000 0.984211
vt 0.625000 0.257722
vt 0.375000 0.257722
vt 0.625000 0.762677
vt 0.375000 0.762677
vt 0.309437 0.723983
vt 0.309437 0.737105
vt 0.309437 0.500000
vt 0.309437 0.506745
vt 0.309437 0.750000
vt 0.375000 0.434437
vt 0.625000 0.434437
vt 0.625000 0.265789
vt 0.375000 0.265789
vt 0.140789 0.737105
vt 0.140789 0.750000
vt 0.140789 0.500000
vt 0.140789 0.506745
vt 0.140789 0.723983
vt 0.375000 0.846622
vt 0.625000 0.846622
vt 0.625000 0.815563
vt 0.375000 0.815563
vt 0.721622 0.506745
vt 0.859211 0.506745
vt 0.859211 0.531571
vt 0.721622 0.531571
vt 0.140789 0.531571
vt 0.132722 0.531571
vt 0.362323 0.531571
vt 0.309437 0.531571
vt 0.125000 0.531571
vt 0.625000 0.531571
vt 0.375000 0.531571
vt 0.375000 0.026017
vt 0.625000 0.026017
vt 0.637677 0.531571
vt 0.690563 0.531571
vt 0.859211 0.723983
vt 0.721622 0.723983
vt 0.867278 0.531571
vt 0.867278 0.723983
vt 0.637677 0.723983
vt 0.690563 0.723983
vt 0.637677 0.641139
vt 0.637677 0.614416
vt 0.637677 0.614415
vt 0.690563 0.737105
vt 0.721622 0.723983
vt 0.859211 0.737105
vt 0.721622 0.737105
vt 0.625000 0.614415
vt 0.625000 0.614415
vt 0.625000 0.641139
vt 0.721622 0.737105
vt 0.867278 0.737105
vt 0.875000 0.737105
vt 0.875000 0.750000
vt 0.867278 0.750000
vt 0.867278 0.500000
vt 0.875000 0.500000
vt 0.875000 0.506745
vt 0.867278 0.506745
vt 0.875000 0.723983
vt 0.859211 0.500000
vt 0.859211 0.750000
vt 0.637677 0.737105
vt 0.637677 0.750000
vt 0.637677 0.500000
vt 0.637677 0.506745
vt 0.721622 0.750000
vt 0.721621 0.500000
vt 0.721622 0.506745
vt 0.690563 0.500000
vt 0.690563 0.506745
vt 0.690563 0.750000
vt 0.875000 0.531571
vt 0.637677 0.614415
vt 0.625000 0.403378
vt 0.625000 0.403378
vt 0.625000 0.846622
vt 0.278378 0.531571
vt 0.309437 0.531571
vt 0.309437 0.723983
vt 0.278378 0.723983
vt 0.278378 0.506745
vt 0.309437 0.737105
vt 0.278378 0.737105
vt 0.278378 0.500000
vt 0.309437 0.750000
vt 0.278378 0.750000
vt 0.375000 0.403378
vt 0.625000 0.434437
vt 0.690563 0.500000
vt 0.690563 0.737105
vt 0.690563 0.737105
vt 0.690563 0.531571
vt 0.690563 0.506745
vt 0.375000 0.815563
vt 0.623564 0.466955
vt 0.623564 0.258622
vt 0.375000 0.258622
vt 0.375000 0.466955
vt 0.375000 0.783045
vt 0.375000 0.991378
vt 0.623564 0.991378
vt 0.623564 0.783045
vt 0.133622 0.500000
vt 0.133622 0.750000
vt 0.341955 0.750000
vt 0.341955 0.500000
s 0
f 9/1/1 10/2/1 4/3/1 3/4/1
f 29/5/2 25/6/2 8/7/2 7/8/2
f 16/9/3 14/10/3 6/11/3 5/12/3
f 19/13/4 20/14/4 2/15/4 1/16/4
f 32/17/5 16/9/5 5/12/5 26/18/5
f 29/19/5 7/8/5 11/20/5 31/21/5
f 7/8/3 8/7/3 12/22/3 11/20/3
f 51/23/1 49/24/1 10/2/1 9/1/1
f 1/25/1 2/26/1 15/27/1 13/28/1
f 66/29/5 72/30/5 16/9/5 32/17/5
f 72/30/3 62/31/3 14/10/3 16/9/3
f 61/32/5 63/33/5 24/34/5 13/35/5
f 3/36/5 17/37/5 22/38/5 9/39/5
f 13/35/5 24/34/5 19/40/5 1/41/5
f 38/42/4 34/43/4 20/14/4 19/13/4
f 3/4/2 4/3/2 18/44/2 17/45/2
f 5/12/4 6/11/4 30/46/4 26/47/4
f 70/48/5 66/29/5 32/17/5 48/49/5
f 45/50/5 29/19/5 31/21/5 47/51/5
f 48/49/5 32/17/5 26/18/5 42/52/5
f 45/53/2 41/54/2 25/6/2 29/5/2
f 17/45/2 18/44/2 37/55/2 33/56/2
f 24/34/5 36/57/5 38/58/5 19/40/5
f 17/37/5 33/59/5 35/60/5 22/38/5
f 63/33/5 67/61/5 36/57/5 24/34/5
f 113/62/4 106/63/4 34/43/4 38/42/4
f 26/47/4 30/46/4 46/64/4 42/65/4
f 114/66/6 39/67/6 58/68/6 115/69/6
f 22/38/5 35/60/5 57/70/5 53/71/5
f 47/51/5 31/21/5 56/72/5 60/73/5
f 9/39/5 22/38/5 53/71/5 51/74/5
f 11/20/3 12/22/3 52/75/3 50/76/3
f 31/21/5 11/20/5 50/76/5 56/72/5
f 61/77/1 71/78/1 49/24/1 51/23/1
f 13/28/1 15/27/1 71/78/1 61/77/1
f 55/79/2 59/80/2 121/80/2 122/79/2
f 115/69/6 58/68/6 68/81/6 116/82/6
f 53/71/5 57/70/5 67/61/5 63/33/5
f 60/73/5 56/72/5 66/29/5 70/48/5
f 58/68/6 54/83/6 64/84/6 68/81/6
f 51/74/5 53/71/5 63/33/5 61/32/5
f 50/76/3 52/75/3 62/31/3 72/30/3
f 56/72/5 50/76/5 72/30/5 66/29/5
f 52/75/3 12/22/3 78/22/3 100/75/3
f 65/85/2 69/86/2 98/86/2 92/85/2
f 37/55/2 18/44/2 83/44/2 94/55/2
f 49/24/1 71/78/1 99/78/1 77/24/1
f 20/14/4 34/43/4 84/43/4 75/14/4
f 71/78/1 15/27/1 81/27/1 99/78/1
f 18/44/2 4/3/2 40/3/2 83/44/2
f 102/79/1 55/79/1 65/85/1 92/85/1 137/87/1 139/87/1 138/88/1 140/89/1
f 64/84/3 54/83/3 101/83/3 87/84/3
f 69/86/1 73/90/1 90/90/1 98/86/1
f 116/91/6 68/81/6 74/92/6 117/93/6
f 15/27/1 2/26/1 76/26/1 81/27/1
f 80/31/3 62/31/3 52/75/3 100/75/3 142/94/3 143/95/3 141/96/3 144/96/3
f 46/64/4 30/46/4 91/46/4 93/64/4
f 14/10/3 62/31/3 80/31/3 23/10/3
f 30/46/4 6/11/4 21/11/4 91/46/4
f 117/93/2 74/92/2 96/92/2 120/97/2
f 54/83/4 58/68/4 103/68/4 101/83/4
f 12/22/3 8/7/3 27/7/3 78/22/3
f 86/98/6 81/99/6 76/100/6 75/101/6
f 83/102/6 40/103/6 44/104/6 85/105/6
f 87/84/6 99/106/6 81/99/6 86/98/6
f 97/81/6 87/84/6 86/98/6 96/92/6
f 94/107/6 83/102/6 85/105/6 95/67/6
f 96/92/6 86/98/6 75/101/6 84/108/6
f 23/10/6 82/109/6 91/110/6 21/11/6
f 27/7/6 28/111/6 79/112/6 78/22/6
f 80/31/6 92/85/6 82/109/6 23/10/6
f 120/97/6 96/92/6 84/108/6 111/113/6
f 118/114/6 94/107/6 95/67/6 119/115/6
f 92/85/6 98/86/6 90/90/6 82/109/6
f 28/111/6 88/116/6 89/117/6 79/112/6
f 82/109/6 90/90/6 93/118/6 91/110/6
f 79/112/6 89/117/6 104/80/6 102/79/6
f 78/22/6 79/112/6 102/79/6 100/75/6
f 95/67/6 85/105/6 101/83/6 103/68/6
f 85/105/6 44/104/6 77/119/6 101/83/6
f 137/87/6 92/85/6 80/31/6 144/96/6
f 142/95/6 100/75/6 102/79/6 140/120/6
f 101/83/6 77/119/6 99/106/6 87/84/6
f 4/3/1 10/2/1 44/2/1 40/3/1
f 8/7/2 25/6/2 28/6/2 27/7/2
f 68/81/2 64/84/2 87/84/2 97/81/2
f 58/68/3 39/67/3 95/67/3 103/68/3
f 6/11/3 14/10/3 23/10/3 21/11/3
f 43/117/1 59/80/1 104/80/1 89/117/1
f 2/15/4 20/14/4 75/14/4 76/15/4
f 74/92/3 68/81/3 97/81/3 96/92/3
f 25/6/2 41/54/2 88/54/2 28/6/2
f 59/80/4 55/79/4 102/79/4 104/80/4
f 10/2/1 49/24/1 77/24/1 44/2/1
f 112/121/2 37/55/2 94/55/2 118/122/2
f 114/115/4 43/117/4 89/117/4 119/115/4
f 106/63/4 46/64/4 93/64/4 111/123/4
f 109/124/5 60/125/5 70/126/5 110/127/5
f 107/128/5 47/51/5 60/125/5 109/124/5
f 110/127/5 70/126/5 48/129/5 108/130/5
f 105/131/5 45/50/5 47/51/5 107/128/5
f 108/130/5 48/129/5 42/132/5 113/133/5
f 105/134/2 112/122/2 41/135/2 45/53/2
f 33/56/2 37/55/2 112/122/2 105/134/2
f 36/57/5 108/130/5 113/133/5 38/58/5
f 33/59/5 105/131/5 107/128/5 35/60/5
f 67/61/5 110/127/5 108/130/5 36/57/5
f 35/60/5 107/128/5 109/124/5 57/70/5
f 57/70/5 109/124/5 110/127/5 67/61/5
f 34/43/4 106/63/4 111/123/4 84/43/4
f 39/67/4 114/115/4 119/115/4 95/67/4
f 41/54/2 112/121/2 118/122/2 88/54/2
f 88/136/6 118/114/6 119/115/6 89/117/6
f 90/137/6 120/97/6 111/113/6 93/118/6
f 73/138/2 117/93/2 120/97/2 90/137/2
f 133/82/4 132/86/4 124/86/4 127/82/4
f 131/139/3 130/140/3 126/140/3 121/139/3
f 42/141/4 46/64/4 106/63/4 113/62/4
f 65/85/3 55/79/3 122/79/3 123/85/3
f 73/138/3 69/86/3 124/86/3 129/138/3
f 130/140/2 134/66/2 125/66/2 126/140/2
f 117/93/4 73/138/4 129/138/4 128/93/4
f 69/86/4 65/85/4 123/85/4 124/86/4
f 69/86/2 116/91/2 127/91/2 124/86/2
f 132/86/3 131/139/3 121/139/3 124/86/3
f 59/80/1 69/86/1 124/86/1 121/80/1
f 69/86/3 59/139/3 131/139/3 132/86/3
f 43/140/2 114/66/2 134/66/2 130/140/2
f 59/139/3 43/140/3 130/140/3 131/139/3
f 116/82/4 69/86/4 132/86/4 133/82/4
f 136/69/1 133/82/1 127/82/1 135/69/1
f 122/79/6 121/80/6 124/86/6 123/85/6
f 124/86/6 127/91/6 128/93/6 129/138/6
f 121/139/6 135/69/6 127/82/6 124/86/6
f 126/140/6 125/66/6 135/69/6 121/139/6
f 134/66/1 136/69/1 135/69/1 125/66/1
f 116/91/1 117/93/1 128/93/1 127/91/1
f 114/66/1 115/69/1 136/69/1 134/66/1
f 115/69/1 116/82/1 133/82/1 136/69/1
f 142/142/4 140/143/4 138/144/4 143/145/4
f 141/146/2 139/147/2 137/148/2 144/149/2
f 138/150/6 139/151/6 141/152/6 143/153/6
o Top
v -0.050000 0.030000 0.035000
v -0.050000 0.032000 0.035000
v -0.050000 0.030000 -0.035000
v -0.050000 0.032000 -0.035000
v 0.050000 0.030000 0.035000
v 0.050000 0.032000 0.035000
v 0.050000 0.030000 -0.035000
v 0.050000 0.032000 -0.035000
v -0.016930 0.030000 -0.019371
v -0.020635 0.030000 -0.018247
v -0.005519 0.030000 -0.018247
v -0.009224 0.030000 -0.019371
v -0.013077 0.030000 -0.019750
v 0.000888 0.030000 -0.013965
v 0.005170 0.030000 -0.007558
v 0.003345 0.030000 -0.010973
v 0.006294 0.030000 0.003853
v 0.006673 0.030000 0.000000
v 0.006294 0.030000 -0.003853
v -0.002104 0.030000 -0.016422
v -0.032827 0.030000 0.000000
v -0.031323 0.030000 0.007558
v -0.032447 0.030000 0.003853
v -0.032447 0.030000 -0.003853
v -0.031323 0.030000 -0.007558
v -0.029498 0.030000 0.010973
v -0.024049 0.030000 0.016422
v -0.027042 0.030000 -0.013965
v -0.027042 0.030000 0.013965
v -0.029498 0.030000 -0.010973
v -0.020635 0.030000 0.018247
v -0.016930 0.030000 0.019371
v -0.013077 0.030000 0.019750
v -0.009224 0.030000 0.019371
v 0.000888 0.030000 0.013965
v -0.002104 0.030000 0.016422
v 0.003345 0.030000 0.010973
v 0.005170 0.030000 0.007558
v -0.005519 0.030000 0.018247
v -0.024049 0.030000 -0.016422
v -0.032827 0.032000 0.000000
v -0.031323 0.032000 0.007558
v -0.032447 0.032000 0.003853
v -0.032447 0.032000 -0.003853
v -0.031323 0.032000 -0.007558
v -0.029498 0.032000 0.010973
v -0.031274 0.032000 0.007651
v -0.024049 0.032000 0.016422
v -0.027042 0.032000 -0.013965
v -0.027042 0.032000 0.013965
v -0.029498 0.032000 -0.010973
v -0.020635 0.032000 -0.018247
v -0.024049 0.032000 -0.016422
v -0.009224 0.032000 -0.019371
v -0.013077 0.032000 -0.019750
v -0.016930 0.032000 -0.019371
v -0.005519 0.032000 -0.018247
v -0.002104 0.032000 -0.016422
v 0.003345 0.032000 -0.010973
v 0.005170 0.032000 -0.007558
v 0.000888 0.032000 -0.013965
v -0.020635 0.032000 0.018247
v -0.016930 0.032000 0.019371
v -0.013077 0.032000 0.019750
v -0.009224 0.032000 0.019371
v -0.002104 0.032000 0.016422
v -0.005519 0.032000 0.018247
v 0.005170 0.032000 0.007558
v 0.003345 0.032000 0.010973
v 0.006673 0.032000 0.000000
v 0.006294 0.032000 0.003853
v 0.006294 0.032000 -0.003853
v 0.000888 0.032000 0.013965
v 0.019000 0.030000 -0.022000
v 0.019000 0.030000 -0.019035
v 0.023000 0.030000 -0.022000
v 0.019000 0.030000 -0.018000
v 0.023000 0.030000 -0.018000
v 0.019000 0.032000 -0.022000
v 0.023000 0.032000 -0.022000
v 0.019000 0.032000 -0.018000
v 0.019795 0.032000 -0.018000
v 0.023000 0.032000 -0.018000
v 0.019000 0.030000 0.022000
v 0.023000 0.030000 0.022000
v 0.019000 0.030000 0.018000
v 0.020205 0.030000 0.018000
v 0.023000 0.030000 0.018000
v 0.019000 0.032000 0.022000
v 0.019000 0.032000 0.018000
v 0.023000 0.032000 0.018000
v 0.023000 0.032000 0.022000
vn -1.0000 -0.0000 -0.0000
vn -0.0000 -0.0000 -1.0000
vn 1.0000 -0.0000 -0.0000
vn -0.0000 -0.0000 1.0000
vn -0.0000 -1.0000 -0.0000
vn -0.0000 1.0000 -0.0000
vn -0.0980 -0.0000 0.9952
vn -0.2903 -0.0000 0.9569
vn -0.4714 -0.0000 0.8819
vn -0.6344 -0.0000 0.7730
vn -0.7730 -0.0000 0.6344
vn -0.8819 -0.0000 0.4714
vn -0.9569 -0.0000 0.2903
vn -0.9952 -0.0000 0.0980
vn -0.9952 -0.0000 -0.0980
vn -0.9569 -0.0000 -0.2903
vn -0.8819 -0.0000 -0.4714
vn -0.7730 -0.0000 -0.6344
vn -0.6344 -0.0000 -0.7730
vn -0.4714 -0.0000 -0.8819
vn -0.2903 -0.0000 -0.9569
vn -0.0980 -0.0000 -0.9952
vn 0.0980 -0.0000 -0.9952
vn 0.2903 -0.0000 -0.9569
vn 0.4714 -0.0000 -0.8819
vn 0.6344 -0.0000 -0.7730
vn 0.7730 -0.0000 -0.6344
vn 0.8819 -0.0000 -0.4714
vn 0.9569 -0.0000 -0.2903
vn 0.9952 -0.0000 -0.0980
vn 0.9952 -0.0000 0.0980
vn 0.9569 -0.0000 0.2903
vn 0.8819 -0.0000 0.4714
vn 0.7730 -0.0000 0.6344
vn 0.6344 -0.0000 0.7730
vn 0.4714 -0.0000 0.8819
vn 0.2903 -0.0000 0.9569
vn 0.0980 -0.0000 0.9952
vt 0.375000 0.000000
vt 0.625000 0.000000
vt 0.625000 0.250000
vt 0.375000 0.250000
vt 0.625000 0.500000
vt 0.375000 0.500000
vt 0.625000 0.750000
vt 0.375000 0.750000
vt 0.625000 1.000000
vt 0.375000 1.000000
vt 0.168882 0.638761
vt 0.171691 0.651993
vt 0.125000 0.750000
vt 0.125000 0.500000
vt 0.171691 0.598007
vt 0.168882 0.611239
vt 0.167933 0.625000
vt 0.297500 0.546429
vt 0.297500 0.557018
vt 0.258362 0.585812
vt 0.252221 0.575124
vt 0.244739 0.566352
vt 0.236203 0.559833
vt 0.226940 0.555820
vt 0.217308 0.554464
vt 0.207675 0.555820
vt 0.198413 0.559833
vt 0.189877 0.566352
vt 0.182394 0.575124
vt 0.176254 0.585813
vt 0.176254 0.664188
vt 0.182394 0.674876
vt 0.189877 0.683648
vt 0.198413 0.690166
vt 0.207675 0.694180
vt 0.217308 0.695536
vt 0.226940 0.694180
vt 0.236203 0.690167
vt 0.244739 0.683648
vt 0.252221 0.674876
vt 0.258362 0.664188
vt 0.297500 0.689286
vt 0.297500 0.703571
vt 0.307500 0.703571
vt 0.307500 0.689286
vt 0.300512 0.689286
vt 0.262924 0.651993
vt 0.265734 0.638761
vt 0.266683 0.625000
vt 0.265734 0.611239
vt 0.262924 0.598007
vt 0.297500 0.560714
vt 0.307500 0.560714
vt 0.307500 0.546429
vt 0.831118 0.611239
vt 0.828309 0.598007
vt 0.875000 0.500000
vt 0.875000 0.750000
vt 0.828184 0.652326
vt 0.828309 0.651993
vt 0.831118 0.638761
vt 0.832067 0.625000
vt 0.741638 0.585812
vt 0.737076 0.598007
vt 0.700512 0.560714
vt 0.702500 0.560714
vt 0.692500 0.560714
vt 0.734266 0.611239
vt 0.733317 0.625000
vt 0.734266 0.638761
vt 0.737076 0.651993
vt 0.741638 0.664188
vt 0.747779 0.674876
vt 0.702500 0.689286
vt 0.692500 0.689286
vt 0.692500 0.703572
vt 0.702500 0.703571
vt 0.755261 0.683648
vt 0.763797 0.690166
vt 0.773060 0.694180
vt 0.782692 0.695536
vt 0.792325 0.694180
vt 0.801587 0.690166
vt 0.810123 0.683648
vt 0.817606 0.674876
vt 0.823746 0.664188
vt 0.823746 0.585812
vt 0.817606 0.575124
vt 0.810123 0.566352
vt 0.801587 0.559833
vt 0.792325 0.555820
vt 0.782692 0.554464
vt 0.773060 0.555820
vt 0.763797 0.559833
vt 0.755261 0.566352
vt 0.747779 0.575124
vt 0.702500 0.546429
vt 0.692500 0.546429
vt 1.000000 0.986352
vt 1.000000 0.928240
vt 0.968750 0.928240
vt 0.968750 0.986352
vt 0.968750 0.986352
vt 0.937500 0.928240
vt 0.937500 0.986352
vt 0.937500 0.986352
vt 0.906250 0.928240
vt 0.906250 0.986352
vt 0.906250 0.986352
vt 0.875000 0.928240
vt 0.875000 0.986352
vt 0.875000 0.986352
vt 0.843750 0.928240
vt 0.843750 0.986352
vt 0.812500 0.928240
vt 0.812500 0.986352
vt 0.843750 0.986352
vt 0.781250 0.928240
vt 0.781250 0.986352
vt 0.812500 0.986352
vt 0.781250 0.928240
vt 0.750000 0.928240
vt 0.750000 0.986352
vt 0.781250 0.986352
vt 0.750000 0.928240
vt 0.718750 0.928240
vt 0.718750 0.986352
vt 0.750000 0.986352
vt 0.687500 0.928240
vt 0.687500 0.986352
vt 0.718750 0.986352
vt 0.656250 0.928240
vt 0.656250 0.986352
vt 0.687500 0.986352
vt 0.656250 0.928240
vt 0.625000 0.928240
vt 0.625000 0.986352
vt 0.656250 0.986352
vt 0.593750 0.928240
vt 0.593750 0.986352
vt 0.625000 0.986352
vt 0.562500 0.928240
vt 0.562500 0.986352
vt 0.593750 0.986352
vt 0.531250 0.928240
vt 0.531250 0.986352
vt 0.562500 0.986352
vt 0.500000 0.928240
vt 0.500000 0.986352
vt 0.531250 0.986352
vt 0.468750 0.928240
vt 0.468750 0.986352
vt 0.500000 0.986352
vt 0.437500 0.928240
vt 0.437500 0.986352
vt 0.468750 0.986352
vt 0.406250 0.928240
vt 0.406250 0.986352
vt 0.437500 0.986352
vt 0.375000 0.928240
vt 0.375000 0.986352
vt 0.406250 0.986352
vt 0.375000 0.928240
vt 0.343750 0.928240
vt 0.343750 0.986352
vt 0.375000 0.986352
vt 0.313353 0.986352
vt 0.343750 0.986352
vt 0.312500 0.928240
vt 0.312500 0.986352
vt 0.312500 0.986352
vt 0.281250 0.928240
vt 0.281250 0.986352
vt 0.281250 0.986352
vt 0.281250 0.928240
vt 0.250000 0.928240
vt 0.250000 0.986352
vt 0.250000 0.986352
vt 0.250000 0.928240
vt 0.218750 0.928240
vt 0.218750 0.986352
vt 0.218750 0.986352
vt 0.187500 0.928240
vt 0.187500 0.986352
vt 0.187500 0.986352
vt 0.187500 0.928240
vt 0.156250 0.928240
vt 0.156250 0.986352
vt 0.156250 0.986352
vt 0.125000 0.928240
vt 0.125000 0.986352
vt 0.125000 0.986352
vt 0.093750 0.928240
vt 0.093750 0.986352
vt 0.093750 0.986352
vt 0.093750 0.928240
vt 0.062500 0.928240
vt 0.062500 0.986352
vt 0.062500 0.986352
vt 0.031250 0.928240
vt 0.031250 0.986352
vt 0.031250 0.986352
vt 0.000000 0.928240
vt 0.000000 0.986352
vt 0.575291 0.250000
vt 0.575291 0.000000
vt 0.450291 0.000000
vt 0.450291 0.064688
vt 0.450291 0.250000
vt 0.450291 0.500000
vt 0.575291 0.500000
vt 0.450291 0.750000
vt 0.575291 0.750000
vt 0.450291 1.000000
vt 0.575291 1.000000
vt 0.575291 0.950291
vt 0.450291 0.325291
vt 0.450291 0.750000
s 0
f 145/154/7 146/155/7 148/156/7 147/157/7
f 147/157/8 148/156/8 152/158/8 151/159/8
f 151/159/9 152/158/9 150/160/9 149/161/9
f 149/161/10 150/160/10 146/162/10 145/163/10
f 167/164/11 166/165/11 145/166/11 147/167/11 169/168/11 168/169/11 165/170/11
f 218/171/11 219/172/11 160/173/11 158/174/11 164/175/11 155/176/11 156/177/11 157/178/11 153/179/11 154/180/11 184/181/11 172/182/11 174/183/11 169/168/11 147/167/11 151/159/11 149/161/11 145/166/11 166/165/11 170/184/11 173/185/11 171/186/11 175/187/11 176/188/11 177/189/11 178/190/11 183/191/11 180/192/11 179/193/11 181/194/11 230/195/11 228/196/11 229/197/11 232/198/11 231/199/11 182/200/11 161/201/11 162/202/11 163/203/11 159/204/11 221/205/11 222/206/11 220/207/11
f 182/200/11 231/199/11 230/195/11 181/194/11
f 160/173/11 219/172/11 221/205/11 159/204/11
f 188/208/12 189/209/12 148/210/12 146/211/12 191/212/12 186/213/12 187/214/12 185/215/12
f 203/216/12 204/217/12 226/218/12 225/219/12
f 227/220/12 226/218/12 204/217/12 216/221/12 214/222/12 215/223/12 212/224/12 213/225/12 217/226/12 234/227/12 235/228/12 236/229/12 233/230/12 210/231/12 211/232/12 209/233/12 208/234/12 207/235/12 206/236/12 192/237/12 194/238/12 190/239/12 191/212/12 146/211/12 150/160/12 152/158/12 148/210/12 189/209/12 195/240/12 193/241/12 197/242/12 196/243/12 200/244/12 199/245/12 198/246/12 201/247/12 202/248/12 205/249/12 203/216/12 225/219/12 223/250/12 224/251/12
f 217/226/12 210/231/12 233/230/12 234/227/12
f 223/358/9 225/359/9 221/360/9 219/361/9 218/362/9
f 223/358/10 218/362/10 220/363/10 224/364/10
f 220/363/7 222/365/7 227/366/7 224/364/7
f 227/366/8 222/365/8 221/367/8 225/368/8 226/369/8
f 233/359/9 228/360/9 230/362/9 234/358/9
f 234/358/10 230/362/10 231/370/10 232/363/10 235/364/10
f 232/363/7 229/365/7 236/366/7 235/364/7
f 229/371/8 228/367/8 233/368/8 236/366/8
f 199/252/13 157/253/13 156/254/13 198/255/13
f 198/256/14 156/254/14 155/257/14 201/258/14
f 201/259/15 155/257/15 164/260/15 202/261/15
f 202/262/16 164/260/16 158/263/16 205/264/16
f 205/265/17 158/263/17 160/266/17 203/267/17
f 160/266/18 159/268/18 204/269/18 203/270/18
f 159/268/19 163/271/19 216/272/19 204/273/19
f 163/274/20 162/275/20 214/276/20 216/277/20
f 162/278/21 161/279/21 215/280/21 214/281/21
f 161/279/22 182/282/22 212/283/22 215/284/22
f 182/282/23 181/285/23 213/286/23 212/287/23
f 181/288/24 179/289/24 217/290/24 213/291/24
f 179/289/25 180/292/25 210/293/25 217/294/25
f 180/292/26 183/295/26 211/296/26 210/297/26
f 183/295/27 178/298/27 209/299/27 211/300/27
f 178/298/28 177/301/28 208/302/28 209/303/28
f 177/301/29 176/304/29 207/305/29 208/306/29
f 176/304/30 175/307/30 206/308/30 207/309/30
f 175/307/31 171/310/31 192/311/31 206/312/31
f 171/310/32 173/313/32 194/314/32 192/315/32
f 173/316/33 170/317/33 190/318/33 194/319/33
f 191/320/34 190/321/34 170/317/34 166/322/34 186/323/34
f 186/324/35 166/322/35 167/325/35 187/326/35
f 187/327/36 167/328/36 165/329/36 185/330/36
f 185/331/37 165/332/37 168/333/37 188/334/37
f 188/335/38 168/333/38 169/336/38 189/337/38
f 189/338/39 169/339/39 174/340/39 195/341/39
f 195/342/40 174/340/40 172/343/40 193/344/40
f 193/345/41 172/343/41 184/346/41 197/347/41
f 197/348/42 184/349/42 154/350/42 196/351/42
f 196/352/43 154/350/43 153/353/43 200/354/43
f 200/355/44 153/353/44 157/356/44 199/357/44
